<svg width="20" height="20" viewBox="0 0 87 95" fill="none" xmlns="http://www.w3.org/2000/svg">
<mask id="path-1-inside-1_2142_18" fill="white">
<path d="M29.5266 68.5354L39.4706 47.5004L29.5266 26.4638C29.5266 26.4638 55.6101 24.3527 57.1159 47.4996C55.6101 70.6464 29.5266 68.5354 29.5266 68.5354ZM86.4427 47.4996C86.4487 44.2741 86.0726 41.0591 85.3221 37.9209C85.638 39.2356 85.946 40.4963 85.309 37.8634C84.6736 35.2409 84.9738 36.4842 85.2905 37.7954C81.9709 24.1889 72.6279 13.0027 59.2211 6.27658C49.0944 1.1945 39.0854 0.275319 27.8856 0H0.442793L10.3851 47.5004L0.442793 95H27.8856C39.0854 94.7247 49.0953 93.8064 59.2219 88.7234C72.6279 81.9981 81.97 70.812 85.2905 57.2046C84.9738 58.5158 84.6736 59.7582 85.3081 57.1366C85.946 54.5028 85.6389 55.7644 85.3221 57.0791C86.0723 53.9408 86.4481 50.7259 86.4418 47.5004"/>
</mask>
<path d="M29.5266 68.5354L26.8144 67.2532L24.9601 71.1756L29.2845 71.5256L29.5266 68.5354ZM39.4706 47.5004L42.1829 48.7826L42.789 47.5005L42.1829 46.2183L39.4706 47.5004ZM29.5266 26.4638L29.2845 23.4735L24.9602 23.8235L26.8143 27.7459L29.5266 26.4638ZM57.1159 47.4996L60.1096 47.6943L60.1222 47.4996L60.1096 47.3048L57.1159 47.4996ZM85.3221 37.9209L88.2391 37.22L82.4044 38.6186L85.3221 37.9209ZM85.309 37.8634L88.2248 37.1579L88.2246 37.157L85.309 37.8634ZM85.2905 37.7954L82.376 38.5065L88.2066 37.0909L85.2905 37.7954ZM59.2211 6.27658L57.8755 8.95788L57.8758 8.95804L59.2211 6.27658ZM27.8856 0L27.9593 -2.99909L27.9225 -3H27.8856V0ZM0.442793 0V-3H-3.25015L-2.49357 0.614613L0.442793 0ZM10.3851 47.5004L13.3215 48.1151L13.4501 47.5004L13.3215 46.8858L10.3851 47.5004ZM0.442793 95L-2.49357 94.3854L-3.25016 98H0.442793V95ZM27.8856 95V98H27.9225L27.9593 97.9991L27.8856 95ZM59.2219 88.7234L57.8767 86.0419L57.8761 86.0422L59.2219 88.7234ZM85.2905 57.2046L88.2066 57.9091L82.3761 56.4934L85.2905 57.2046ZM85.3081 57.1366L82.3924 56.4304L82.3923 56.431L85.3081 57.1366ZM85.3221 57.0791L82.4043 56.3817L88.2387 57.7818L85.3221 57.0791ZM32.2388 69.8175L42.1829 48.7826L36.7584 46.2183L26.8144 67.2532L32.2388 69.8175ZM42.1829 46.2183L32.2388 25.1817L26.8143 27.7459L36.7584 48.7825L42.1829 46.2183ZM29.5266 26.4638C29.7686 29.454 29.7674 29.4541 29.7663 29.4542C29.766 29.4542 29.765 29.4543 29.7646 29.4543C29.7636 29.4544 29.7631 29.4544 29.7629 29.4544C29.7625 29.4545 29.7637 29.4544 29.7664 29.4542C29.7719 29.4538 29.7833 29.453 29.8007 29.4518C29.8353 29.4495 29.8934 29.4459 29.9734 29.4418C30.1335 29.4336 30.3806 29.4234 30.7027 29.4178C31.3479 29.4065 32.288 29.4135 33.4271 29.489C35.7212 29.6412 38.7405 30.0666 41.7589 31.1309C44.7745 32.1941 47.6803 33.8555 49.9055 36.4156C52.0994 38.9398 53.785 42.5111 54.1222 47.6943L60.1096 47.3048C59.6938 40.9146 57.5543 36.0697 54.4341 32.4796C51.3451 28.9256 47.4477 26.7747 43.7541 25.4723C40.0635 24.171 36.4678 23.6775 33.8242 23.5022C32.4944 23.414 31.385 23.405 30.5978 23.4187C30.2038 23.4256 29.8891 23.4382 29.6663 23.4496C29.5549 23.4554 29.4663 23.4608 29.4022 23.465C29.3701 23.4672 29.3442 23.469 29.3245 23.4705C29.3147 23.4712 29.3064 23.4718 29.2997 23.4723C29.2964 23.4726 29.2935 23.4728 29.2909 23.473C29.2897 23.4731 29.2881 23.4733 29.2874 23.4733C29.2859 23.4734 29.2845 23.4735 29.5266 26.4638ZM54.1222 47.3048C53.785 52.488 52.0994 56.0593 49.9055 58.5835C47.6803 61.1437 44.7745 62.805 41.7589 63.8683C38.7405 64.9325 35.7212 65.358 33.4271 65.5101C32.288 65.5857 31.3479 65.5926 30.7027 65.5813C30.3806 65.5757 30.1335 65.5656 29.9734 65.5574C29.8934 65.5533 29.8353 65.5496 29.8007 65.5473C29.7833 65.5462 29.7719 65.5454 29.7664 65.545C29.7637 65.5448 29.7625 65.5447 29.7629 65.5447C29.7631 65.5447 29.7636 65.5447 29.7646 65.5448C29.765 65.5449 29.766 65.5449 29.7663 65.545C29.7674 65.545 29.7686 65.5451 29.5266 68.5354C29.2845 71.5256 29.2859 71.5257 29.2874 71.5258C29.2881 71.5259 29.2897 71.526 29.2909 71.5261C29.2935 71.5263 29.2964 71.5265 29.2997 71.5268C29.3064 71.5273 29.3147 71.5279 29.3245 71.5287C29.3442 71.5301 29.3701 71.532 29.4022 71.5341C29.4663 71.5384 29.5549 71.5438 29.6663 71.5495C29.8891 71.5609 30.2038 71.5735 30.5979 71.5804C31.385 71.5942 32.4944 71.5852 33.8242 71.497C36.4678 71.3216 40.0635 70.8281 43.7541 69.5268C47.4477 68.2245 51.3451 66.0736 54.4341 62.5195C57.5543 58.9295 59.6938 54.0846 60.1096 47.6943L54.1222 47.3048ZM89.4427 47.5051C89.4491 44.0427 89.0454 40.5917 88.2399 37.2232L82.4044 38.6186C83.0998 41.5266 83.4482 44.5055 83.4427 47.494L89.4427 47.5051ZM82.4052 38.6218C82.5633 39.28 82.7206 39.9293 82.7591 40.0866C82.7617 40.0969 82.7642 40.1071 82.7664 40.116C82.7675 40.1203 82.7689 40.1264 82.7706 40.1329C82.7714 40.1362 82.7727 40.1413 82.7743 40.1474C82.7753 40.1513 82.7788 40.1652 82.7835 40.1827C82.7854 40.1896 82.7914 40.212 82.7996 40.2404C82.8043 40.2564 82.8172 40.2988 82.8256 40.3252C82.8428 40.3771 82.919 40.5762 82.9847 40.7205C84.2611 42.0481 87.9474 41.371 88.6809 39.3724C88.6743 39.203 88.6505 38.9779 88.6418 38.9216C88.6304 38.8516 88.6185 38.7956 88.6181 38.7939C88.6125 38.7668 88.6076 38.7451 88.6069 38.7423C88.6052 38.7347 88.6038 38.7285 88.6029 38.7249C88.6001 38.7125 88.597 38.6996 88.5951 38.6915C88.5863 38.6548 88.5685 38.5803 88.5408 38.4654C88.4846 38.2324 88.3842 37.8163 88.2248 37.1579L82.3931 38.5689C82.5523 39.2269 82.6522 39.6406 82.7077 39.8707C82.7357 39.9873 82.7514 40.0527 82.7577 40.0791C82.7596 40.0868 82.7591 40.0849 82.7577 40.0789C82.7572 40.0769 82.7561 40.0721 82.7546 40.0655C82.7542 40.0637 82.7495 40.0428 82.7439 40.0162C82.7436 40.0147 82.7317 39.9589 82.7203 39.889C82.7117 39.8328 82.6879 39.6077 82.6813 39.4383C83.4147 37.4397 87.101 36.7627 88.3774 38.0902C88.4432 38.2345 88.5193 38.4336 88.5365 38.4854C88.5449 38.5118 88.5578 38.5541 88.5624 38.57C88.5706 38.5983 88.5766 38.6204 88.5783 38.627C88.5888 38.6659 88.5973 38.7019 88.5867 38.6585C88.5515 38.515 88.3969 37.8765 88.2391 37.22L82.4052 38.6218ZM88.2246 37.157C88.0658 36.5014 87.9653 36.0868 87.9088 35.8543C87.8809 35.739 87.8631 35.6659 87.8544 35.6306C87.8524 35.6224 87.8499 35.6122 87.8477 35.6033C87.8471 35.6008 87.8461 35.597 87.845 35.5924C87.8443 35.5898 87.8416 35.5791 87.8382 35.5658C87.837 35.5613 87.832 35.5423 87.8253 35.5182C87.8212 35.5035 87.8092 35.4623 87.8011 35.4357C87.7804 35.3714 87.6018 34.9482 87.3999 34.6123C84.0437 33.4583 81.9427 36.5344 81.9665 36.7544C81.9746 36.807 81.988 36.883 81.9925 36.9064C81.9993 36.9404 82.0053 36.9672 82.0061 36.9708C82.0095 36.9865 82.0125 36.9991 82.013 37.0015C82.0141 37.0064 82.0151 37.0105 82.0157 37.013C82.0169 37.0182 82.0181 37.0232 82.019 37.0268C82.0208 37.0345 82.023 37.0437 82.0253 37.0535C82.0614 37.2038 82.2166 37.8465 82.3744 38.4999L88.2066 37.0909C88.0477 36.4331 87.8945 35.7985 87.8601 35.655C87.8505 35.6149 87.8576 35.6437 87.8646 35.6755C87.8653 35.6788 87.8712 35.7054 87.878 35.7393C87.8825 35.7627 87.8959 35.8385 87.904 35.8911C87.9278 36.1111 85.8268 39.1872 82.4706 38.0332C82.2687 37.6973 82.0901 37.2741 82.0694 37.2098C82.0613 37.1833 82.0493 37.1421 82.0452 37.1276C82.0385 37.1036 82.0337 37.0849 82.0326 37.0806C82.0292 37.0679 82.0268 37.0581 82.0264 37.0565C82.0255 37.0531 82.0249 37.0507 82.0247 37.0499C82.0242 37.0477 82.0245 37.0489 82.0264 37.0568C82.0335 37.0857 82.0499 37.1532 82.0782 37.2697C82.1343 37.5007 82.2345 37.9141 82.3933 38.5697L88.2246 37.157ZM88.2051 37.0844C84.6565 22.5398 74.6805 10.6761 60.5663 3.59513L57.8758 8.95804C70.5753 15.3293 79.2852 25.838 82.376 38.5065L88.2051 37.0844ZM60.5667 3.59529C49.8222 -1.79685 39.2563 -2.72139 27.9593 -2.99909L27.8119 2.99909C38.9146 3.27203 48.3667 4.18585 57.8755 8.95788L60.5667 3.59529ZM27.8856 -3H0.442793V3H27.8856V-3ZM-2.49357 0.614613L7.44877 48.115L13.3215 46.8858L3.37916 -0.614613L-2.49357 0.614613ZM7.44877 46.8858L-2.49357 94.3854L3.37916 95.6146L13.3215 48.1151L7.44877 46.8858ZM0.442793 98H27.8856V92H0.442793V98ZM27.9593 97.9991C39.256 97.7214 49.8231 96.7978 60.5677 91.4046L57.8761 86.0422C48.3676 90.815 38.9148 91.728 27.8119 92.0009L27.9593 97.9991ZM60.5672 91.4049C74.6806 84.3247 84.6556 72.4609 88.205 57.9158L82.3761 56.4934C79.2844 69.163 70.5751 79.6716 57.8767 86.0419L60.5672 91.4049ZM82.3744 56.5001C82.2163 57.1544 82.0616 57.7951 82.0258 57.9437C82.0243 57.9503 82.0165 57.9823 82.0118 58.0026C82.0114 58.0045 82.008 58.0191 82.004 58.0376C82.0012 58.0503 81.9927 58.0918 81.9871 58.1205C81.9663 58.2452 84.139 61.5693 87.6558 59.9408C87.7376 59.7474 87.8158 59.5143 87.8257 59.4797C87.8296 59.4654 87.8356 59.4432 87.8376 59.4353C87.841 59.4223 87.8436 59.4121 87.8442 59.4096C87.8471 59.3983 87.8496 59.3882 87.8496 59.3878C87.8512 59.3814 87.8532 59.3733 87.8552 59.3652C87.8634 59.3313 87.8808 59.2595 87.9088 59.144C87.965 58.9119 88.0653 58.4977 88.2239 57.8423L82.3923 56.431C82.2336 57.0864 82.1335 57.5 82.0775 57.7313C82.0493 57.8475 82.0327 57.9162 82.0252 57.9467C82.0244 57.9504 82.0237 57.9532 82.0231 57.9553C82.0226 57.9576 82.0224 57.9584 82.0224 57.9583C82.0224 57.9582 82.0227 57.9573 82.0231 57.9557C82.0232 57.9551 82.0245 57.95 82.0262 57.9433C82.0267 57.9411 82.0292 57.931 82.0326 57.9182C82.0346 57.9104 82.0406 57.8883 82.0445 57.874C82.0543 57.8394 82.1326 57.6063 82.2143 57.4129C85.7311 55.7844 87.9039 59.1085 87.883 59.2332C87.8775 59.2619 87.8689 59.3033 87.8662 59.316C87.8622 59.3343 87.8589 59.3487 87.8585 59.3504C87.8548 59.3666 87.8521 59.3773 87.8594 59.3472C87.8943 59.2022 88.048 58.566 88.2066 57.9091L82.3744 56.5001ZM88.2238 57.8428C88.3833 57.1842 88.4839 56.7687 88.54 56.5364C88.5679 56.4209 88.5853 56.349 88.5934 56.3151C88.5953 56.3072 88.5974 56.2984 88.5991 56.2912C88.5996 56.2892 88.6003 56.2861 88.6012 56.2825C88.6016 56.281 88.6038 56.2713 88.6065 56.2593C88.6067 56.2586 88.6123 56.2341 88.6187 56.2036C88.6236 56.179 88.6417 56.0796 88.653 56.0045C87.9274 53.6057 83.9218 53.1643 82.8461 54.6134C82.8238 54.6805 82.7963 54.7711 82.7898 54.7942C82.7866 54.8059 82.7816 54.8246 82.7797 54.8317C82.7764 54.8443 82.7739 54.8542 82.7731 54.8573C82.7679 54.8779 82.7602 54.9095 82.7583 54.9176C82.7208 55.0714 82.5642 55.718 82.4056 56.3764L88.2387 57.7818C88.3968 57.1255 88.5522 56.484 88.588 56.3367C88.5952 56.3072 88.593 56.3166 88.589 56.3323C88.5883 56.3351 88.5858 56.3447 88.5826 56.3571C88.5807 56.3641 88.5757 56.3828 88.5725 56.3944C88.566 56.4175 88.5386 56.5081 88.5163 56.5751C87.4405 58.0242 83.435 57.5828 82.7094 55.1841C82.7207 55.1089 82.7387 55.0096 82.7437 54.985C82.75 54.9547 82.7556 54.9303 82.7557 54.9298C82.7583 54.9183 82.7604 54.9094 82.7605 54.9089C82.7611 54.9064 82.7615 54.9046 82.7616 54.9042C82.7618 54.9034 82.7613 54.9057 82.7594 54.9135C82.7524 54.9427 82.736 55.0107 82.7079 55.1268C82.6521 55.3576 82.5519 55.7721 82.3924 56.4304L88.2238 57.8428ZM88.2399 57.7765C89.0451 54.408 89.4485 50.957 89.4418 47.4946L83.4419 47.5062C83.4476 50.4947 83.0994 53.4737 82.4043 56.3817L88.2399 57.7765Z" fill="url(#paint0_linear_2142_18)" mask="url(#path-1-inside-1_2142_18)"/>
<defs>
<linearGradient id="paint0_linear_2142_18" x1="14" y1="48" x2="59.5" y2="76.5" gradientUnits="userSpaceOnUse">
<stop stop-color="#206EF4"/>
<stop offset="1" stop-color="#7247EF"/>
</linearGradient>
</defs>
</svg>