<svg width="128" height="128" fill="none" xmlns="http://www.w3.org/2000/svg"><rect x="3.5" y="3.5" width="121" height="121" rx="23" fill="#1963E8"/><g filter="url(#a)"><path d="M51.9 4h24.2c22.816 0 34.224 0 41.312 7.091 7.088 7.091 7.088 18.504 7.088 41.33v3.027c0 22.825 0 34.238-7.088 41.33-7.088 7.09-18.496 7.09-41.312 7.09-3.39.076-6.092.334-8.745.939-6.1 1.404-11.819 4.254-17.432 7.051a458.335 458.335 0 0 1-3.166 1.567c-9.454 4.611-14.18 6.917-17.147 4.759-2.83-2.11-2.955-6.087-2.167-10.487.326-1.817.489-2.726.092-3.297-.396-.571-1.31-.738-3.135-1.075-5.945-1.094-10.542-3.277-13.812-6.547C3.5 89.686 3.5 78.273 3.5 55.448V52.42c0-22.826 0-34.239 7.088-41.33C17.676 4 29.084 4 51.9 4Z" fill="#fff"/></g><path d="M51.7 2h24.6c23.193 0 34.79 0 41.995 7.214 7.205 7.215 7.205 18.826 7.205 42.05v3.078c0 23.223 0 34.834-7.205 42.049-7.205 7.214-18.802 7.214-41.995 7.214-3.447.077-6.192.34-8.89.955-6.2 1.429-12.014 4.328-17.72 7.173-1.075.537-2.148 1.072-3.218 1.595-9.61 4.691-14.415 7.038-17.43 4.842-2.878-2.146-3.004-6.193-2.203-10.67.331-1.848.497-2.773.094-3.354-.403-.58-1.331-.751-3.188-1.093-6.042-1.114-10.716-3.335-14.04-6.662C2.5 89.176 2.5 77.565 2.5 54.342v-3.079c0-23.223 0-34.834 7.205-42.049C16.91 2 28.507 2 51.7 2Z" fill="#fff"/><path d="M20.192 82.462V71.695h4.085l.516-2.612H12.996l-.496 2.612h4.543v10.767h3.15Zm8.8 0v-5.9c0-.338.026-.623.077-.855.05-.232.143-.417.276-.555.134-.138.315-.238.544-.3.23-.063.516-.094.86-.094.343 0 .62.028.83.084.21.057.372.148.486.273.115.125.191.282.23.47.038.188.057.413.057.676v6.201h3.035v-6.821c0-1.165-.34-2.008-1.021-2.528-.681-.52-1.62-.78-2.816-.78-.674 0-1.209.066-1.603.198-.395.131-.713.291-.955.48V68.5h-3.035v13.962h3.035Zm11.262 0V76.6c0-.275.016-.517.048-.723a.926.926 0 0 1 .22-.498c.114-.125.276-.22.486-.282.21-.063.487-.094.83-.094.293 0 .592.003.898.01.305.006.515.015.63.028l.458-2.425a22.558 22.558 0 0 0-1.212-.037h-1.079c-.712 0-1.34.06-1.88.178-.54.12-.992.323-1.355.611s-.633.67-.812 1.146c-.178.477-.267 1.065-.267 1.767v6.182h3.035Zm5.994-11.087c.662 0 1.113-.113 1.355-.338.242-.226.363-.595.363-1.109 0-.488-.121-.849-.363-1.08-.242-.232-.693-.348-1.355-.348-.674 0-1.133.116-1.374.348-.242.231-.363.592-.363 1.08 0 .514.12.883.363 1.109.241.225.7.338 1.374.338Zm1.508 11.087v-9.828H44.72v9.828h3.035Zm8.093 0 3.455-9.828h-3.13l-2.043 6.822-1.985-6.822h-3.321l3.493 9.828h3.531Zm10.804.038c.547 0 1.14-.013 1.775-.038l.44-2.33c-.751.013-1.429.019-2.033.019h-1.69c-.369 0-.674-.022-.916-.066a1.208 1.208 0 0 1-.582-.253.98.98 0 0 1-.306-.489 3.45 3.45 0 0 1-.105-.79h4.505c.318 0 .586-.03.802-.093.216-.063.391-.176.525-.338.134-.163.226-.376.277-.64.05-.263.076-.6.076-1.014v-.395c0-1.177-.344-2.095-1.03-2.753-.688-.658-1.833-.986-3.437-.986-.89 0-1.638.097-2.242.29-.605.195-1.095.486-1.47.875-.376.388-.643.873-.802 1.456-.159.582-.239 1.269-.239 2.058v1.033c0 .752.074 1.406.22 1.964.146.557.398 1.021.754 1.39.356.37.834.646 1.432.828.598.181 1.349.272 2.252.272h1.794Zm-.114-6.013h-3.303c0-.401.023-.727.067-.978.045-.25.127-.448.248-.592a.948.948 0 0 1 .497-.3c.21-.057.486-.085.83-.085s.62.028.83.085c.21.056.379.156.506.3s.213.342.258.592c.045.251.067.577.067.978Zm10.326 5.975c1.159 0 2.12-.125 2.883-.375.763-.251 1.374-.627 1.832-1.128.458-.501.78-1.118.964-1.85.185-.734.277-1.583.277-2.547v-1.598c0-.99-.092-1.85-.277-2.583-.184-.733-.506-1.344-.964-1.833-.458-.488-1.075-.855-1.851-1.099-.777-.244-1.75-.366-2.92-.366h-5.613v13.38h5.67Zm-.305-2.593h-2.272v-8.193h2.272c.56 0 1.03.047 1.413.14.381.095.69.264.925.508.236.245.404.58.506 1.005.102.427.153.978.153 1.654v1.56c0 .676-.051 1.23-.153 1.663-.102.432-.27.77-.506 1.015a1.873 1.873 0 0 1-.925.507c-.382.094-.853.141-1.413.141ZM90.819 82.5c.547 0 1.139-.013 1.775-.038l.44-2.33c-.752.013-1.43.019-2.034.019h-1.689c-.37 0-.675-.022-.916-.066a1.207 1.207 0 0 1-.582-.253.98.98 0 0 1-.306-.489 3.46 3.46 0 0 1-.105-.79h4.505c.318 0 .585-.03.802-.093.216-.063.39-.176.525-.338.133-.163.226-.376.276-.64.051-.263.077-.6.077-1.014v-.395c0-1.177-.344-2.095-1.031-2.753-.687-.658-1.832-.986-3.436-.986-.89 0-1.638.097-2.243.29-.604.195-1.094.486-1.47.875-.375.388-.642.873-.801 1.456-.16.582-.239 1.269-.239 2.058v1.033c0 .752.073 1.406.22 1.964.146.557.397 1.021.754 1.39.356.37.833.646 1.431.828.598.181 1.35.272 2.253.272h1.794Zm-.115-6.013h-3.302c0-.401.022-.727.067-.978.045-.25.127-.447.248-.591a.947.947 0 0 1 .496-.301c.21-.056.487-.085.83-.085.344 0 .621.029.831.085.21.056.379.156.506.3.127.145.213.342.258.592.044.251.066.577.066.978Zm8.59 6.013c1.502 0 2.602-.244 3.302-.733.7-.489 1.05-1.253 1.05-2.292v-.32c0-.388-.048-.749-.143-1.08a2.107 2.107 0 0 0-.496-.874c-.236-.25-.551-.458-.945-.62-.395-.163-.885-.27-1.47-.32l-1.756-.15c-.445-.038-.732-.104-.859-.198-.127-.094-.19-.24-.19-.441 0-.25.088-.407.266-.47.178-.063.497-.094.955-.094h1.374c.318 0 .69.003 1.117.01.426.006.932.015 1.517.028l.439-2.312c-.547-.012-1.034-.022-1.46-.028a78.22 78.22 0 0 0-1.136-.01h-1.66c-.79 0-1.457.066-2.005.198-.547.131-.989.323-1.326.573a2.21 2.21 0 0 0-.735.911c-.153.357-.23.768-.23 1.231v.357c0 .765.223 1.41.669 1.936.445.526 1.196.827 2.252.902l1.871.132c.445.025.732.09.859.197.127.106.191.266.191.48 0 .275-.093.456-.277.544-.185.088-.544.132-1.079.132a260.994 260.994 0 0 1-4.16-.038l-.42 2.311a73.623 73.623 0 0 0 2.51.038h1.975Zm8.952-.038V78.16l3.57 4.303h3.684l-4.619-5.412 4.237-4.416h-3.588l-3.284 3.57V68.5h-3.035v13.962h3.035Z" fill="#334155"/><path d="m62.023 116.5 1.942-5.468h1.147l1.943 5.468H66.2l-.45-1.275h-2.422l-.45 1.275h-.855Zm1.5-1.913h2.024l-.6-1.687-.382-1.118h-.045l-.382 1.118-.616 1.687Zm4.205 1.913v-5.468h.818v5.468h-.818Zm3.824 0v-5.468h2.212c.58 0 1.043.153 1.388.458.345.3.517.727.517 1.282 0 .35-.077.658-.232.923-.15.26-.368.462-.653.607-.285.14-.627.21-1.027.21h-1.388v1.988h-.817Zm2.085-2.64c.355.005.642-.08.862-.255.225-.175.338-.445.338-.81 0-.365-.113-.633-.338-.803-.22-.17-.507-.255-.862-.255h-1.268v2.123h1.268Zm5.3 2.708c-.54 0-1.012-.113-1.417-.338a2.351 2.351 0 0 1-.945-.968c-.22-.42-.33-.917-.33-1.492 0-.58.113-1.078.338-1.493.225-.42.537-.742.937-.967.405-.225.878-.338 1.418-.338.545 0 1.017.113 1.417.338.405.225.72.547.945.967.225.415.338.913.338 1.493 0 .58-.113 1.08-.338 1.5-.225.415-.54.735-.945.96-.405.225-.877.338-1.417.338Zm0-.706c.57 0 1.023-.182 1.358-.547.335-.37.503-.885.503-1.545 0-.665-.168-1.18-.503-1.545-.335-.365-.787-.548-1.357-.548s-1.023.183-1.358.548c-.33.365-.495.88-.495 1.545 0 .665.168 1.18.503 1.545.335.365.785.547 1.35.547Zm4.275.638-1.215-5.468h.892l.623 3.023.3 1.552h.052l1.14-4.575h1.035l1.155 4.583h.053l.285-1.553.615-3.03h.892l-1.215 5.468H86.7l-1.155-4.41H85.5l-1.162 4.41h-1.125Zm6.555 0v-5.468h3.832v.705h-3.015v1.643h2.648v.66h-2.648v1.747h3.023v.713h-3.84Zm4.878 0v-5.468h2.55c.6 0 1.052.13 1.357.39.305.26.458.633.458 1.118 0 .33-.085.612-.255.847a1.25 1.25 0 0 1-.713.473v.052c.295.05.508.165.638.345.135.18.202.425.202.735v.915c0 .095.003.193.008.293.01.1.037.2.082.3h-.825a.748.748 0 0 1-.067-.263 3.656 3.656 0 0 1-.015-.345v-.757c0-.28-.068-.49-.203-.63-.13-.145-.387-.218-.772-.218h-1.628v2.213h-.817Zm.817-2.873h1.62c.39 0 .668-.092.833-.277.17-.185.255-.42.255-.705 0-.325-.1-.56-.3-.705-.2-.145-.463-.218-.788-.218h-1.62v1.905Zm4.581 2.873v-5.468h3.832v.705h-3.015v1.643h2.648v.66h-2.648v1.747h3.023v.713h-3.84Zm4.878 0v-5.468h2.212c.525 0 .973.115 1.343.345.37.225.65.543.84.953.195.41.292.89.292 1.44 0 .545-.097 1.022-.292 1.432-.19.41-.47.73-.84.96-.37.225-.818.338-1.343.338h-2.212Zm.817-.705h1.275c.53 0 .955-.165 1.275-.495.32-.335.48-.85.48-1.545s-.162-1.205-.487-1.53c-.32-.325-.743-.488-1.268-.488h-1.275v4.058Z" fill="#fff"/><path d="m58.02 46.66 4.452-9.41-4.452-9.41s11.677-.945 12.351 9.41c-.674 10.355-12.35 9.41-12.35 9.41Zm25.48-9.41a18.269 18.269 0 0 0-.502-4.285c.142.588.28 1.152-.006-.026-.284-1.173-.15-.617-.008-.03-1.486-6.088-5.669-11.092-11.67-14.101-4.534-2.274-9.015-2.685-14.029-2.808H45l4.45 21.25L45 58.5h12.285c5.014-.123 9.496-.534 14.029-2.808 6.001-3.009 10.184-8.013 11.67-14.1-.142.586-.276 1.142.008-.03.286-1.18.148-.615.006-.027.336-1.404.504-2.842.502-4.285" fill="#1963E8"/><defs><filter id="a" x="1.5" y="4" width="125" height="119" filterUnits="userSpaceOnUse" color-interpolation-filters="sRGB"><feFlood flood-opacity="0" result="BackgroundImageFix"/><feColorMatrix in="SourceAlpha" values="0 0 0 0 0 0 0 0 0 0 0 0 0 0 0 0 0 0 127 0" result="hardAlpha"/><feOffset dy="2"/><feGaussianBlur stdDeviation="1"/><feComposite in2="hardAlpha" operator="out"/><feColorMatrix values="0 0 0 0 0 0 0 0 0 0 0 0 0 0 0 0 0 0 0.25 0"/><feBlend in2="BackgroundImageFix" result="effect1_dropShadow_2125_414"/><feBlend in="SourceGraphic" in2="effect1_dropShadow_2125_414" result="shape"/></filter></defs></svg>