<svg width="256" height="256" viewBox="0 0 256 256" fill="none" xmlns="http://www.w3.org/2000/svg">
<rect x="7" y="7" width="242" height="242" rx="46" fill="#1963E8"/>
<g filter="url(#filter0_d_2125_414)">
<path d="M103.8 8H152.2C197.832 8 220.648 8 234.824 22.1822C249 36.3644 249 59.1902 249 104.842V110.895C249 156.546 249 179.372 234.824 193.555C220.648 207.736 197.832 207.736 152.2 207.736C145.418 207.888 140.017 208.404 134.711 209.613C122.512 212.423 111.072 218.122 99.8471 223.715C97.7305 224.77 95.6183 225.822 93.5134 226.85C74.6061 236.072 65.1526 240.685 59.2199 236.367C53.559 232.149 53.3099 224.193 54.8867 215.394C55.538 211.76 55.8637 209.942 55.0707 208.8C54.2777 207.659 52.4519 207.323 48.8002 206.65C36.9108 204.461 27.715 200.096 21.176 193.555C7 179.372 7 156.546 7 110.895V104.842C7 59.1902 7 36.3644 21.176 22.1822C35.352 8 58.168 8 103.8 8Z" fill="white"/>
</g>
<path d="M103.4 4H152.6C198.986 4 222.179 4 236.59 18.4289C251 32.8577 251 56.0805 251 102.527V108.685C251 155.13 251 178.353 236.59 192.782C222.179 207.21 198.986 207.21 152.6 207.21C145.706 207.364 140.215 207.889 134.822 209.12C122.421 211.978 110.793 217.777 99.3817 223.467C97.2302 224.54 95.083 225.61 92.9434 226.656C73.7236 236.039 64.1138 240.731 58.083 236.339C52.3286 232.047 52.0754 223.953 53.6782 215.001C54.3403 211.303 54.6714 209.454 53.8652 208.292C53.0591 207.131 51.2031 206.79 47.4911 206.105C35.4051 203.878 26.0574 199.437 19.4103 192.782C5 178.353 5 155.13 5 108.685V102.527C5 56.0805 5 32.8577 19.4103 18.4289C33.8207 4 57.0138 4 103.4 4Z" fill="white"/>
<path d="M40.3851 164.925V143.389H48.5549L49.5856 138.165H25.9926L25 143.389H34.086V164.925H40.3851ZM57.9844 164.925V153.123C57.9844 152.447 58.0353 151.877 58.1371 151.414C58.2389 150.95 58.4233 150.58 58.6905 150.305C58.9577 150.029 59.3206 149.829 59.7787 149.703C60.2368 149.578 60.8095 149.515 61.4967 149.515C62.1838 149.515 62.7376 149.572 63.1572 149.684C63.5771 149.797 63.9018 149.979 64.1308 150.23C64.3599 150.48 64.5126 150.793 64.589 151.169C64.6653 151.545 64.7035 151.996 64.7035 152.522V164.925H70.7735V151.282C70.7735 148.952 70.0925 147.267 68.7313 146.227C67.3693 145.187 65.4925 144.667 63.1001 144.667C61.7512 144.667 60.6822 144.798 59.8933 145.062C59.1043 145.325 58.468 145.644 57.9844 146.02V137H51.9144V164.925H57.9844V164.925ZM80.5085 164.925V153.199C80.5085 152.647 80.5402 152.165 80.6041 151.751C80.6678 151.338 80.8139 151.006 81.043 150.756C81.2721 150.505 81.5964 150.317 82.0167 150.192C82.4366 150.067 82.99 150.004 83.6772 150.004C84.2625 150.004 84.8606 150.01 85.4715 150.023C86.0823 150.035 86.5022 150.054 86.7313 150.079L87.6475 145.231C86.7313 145.181 85.923 145.156 85.2231 145.156H83.0663C81.6411 145.156 80.3878 145.275 79.3061 145.513C78.2245 145.751 77.321 146.158 76.5956 146.734C75.8703 147.311 75.3293 148.075 74.9729 149.027C74.6166 149.979 74.4385 151.157 74.4385 152.56V164.925H80.5085V164.925ZM92.4959 142.75C93.8194 142.75 94.7229 142.525 95.2064 142.074C95.69 141.623 95.9318 140.884 95.9318 139.856C95.9318 138.879 95.69 138.159 95.2064 137.695C94.7229 137.232 93.8194 137 92.4959 137C91.147 137 90.2308 137.232 89.7472 137.695C89.2637 138.159 89.0219 138.879 89.0219 139.856C89.0219 140.884 89.2637 141.623 89.7472 142.074C90.2308 142.525 91.147 142.75 92.4959 142.75ZM95.5119 164.925V145.268H89.4418V164.925H95.5119ZM111.699 164.925L118.609 145.268H112.348L108.263 158.911L104.292 145.268H97.6497L104.636 164.925H111.699ZM133.307 165C134.401 165 135.584 164.975 136.857 164.925L137.735 160.264C136.233 160.289 134.878 160.302 133.669 160.302H130.291C129.552 160.302 128.942 160.258 128.458 160.171C127.975 160.083 127.586 159.914 127.294 159.663C127.001 159.413 126.797 159.087 126.683 158.686C126.568 158.285 126.498 157.759 126.473 157.107H135.483C136.119 157.107 136.653 157.045 137.086 156.919C137.519 156.794 137.869 156.569 138.136 156.243C138.403 155.917 138.588 155.491 138.689 154.965C138.791 154.439 138.842 153.762 138.842 152.936V152.146C138.842 149.791 138.155 147.956 136.781 146.64C135.406 145.325 133.116 144.667 129.909 144.667C128.127 144.667 126.632 144.861 125.423 145.249C124.214 145.638 123.234 146.221 122.484 146.997C121.733 147.774 121.198 148.745 120.88 149.91C120.562 151.075 120.403 152.447 120.403 154.026V156.093C120.403 157.596 120.549 158.905 120.842 160.02C121.135 161.135 121.637 162.062 122.35 162.802C123.063 163.54 124.017 164.092 125.213 164.455C126.409 164.818 127.911 165 129.718 165H133.307V165ZM133.077 152.973H126.473C126.473 152.171 126.517 151.52 126.606 151.019C126.695 150.518 126.861 150.123 127.103 149.835C127.344 149.547 127.675 149.346 128.095 149.233C128.516 149.121 129.069 149.064 129.756 149.064C130.443 149.064 130.997 149.121 131.417 149.233C131.837 149.346 132.174 149.547 132.428 149.835C132.683 150.123 132.855 150.518 132.944 151.019C133.033 151.52 133.077 152.171 133.077 152.973V152.973ZM153.731 164.925C156.047 164.925 157.968 164.674 159.496 164.173C161.023 163.672 162.244 162.92 163.16 161.918C164.077 160.916 164.719 159.682 165.089 158.216C165.458 156.751 165.642 155.053 165.642 153.123V149.929C165.642 147.949 165.458 146.227 165.089 144.761C164.72 143.295 164.077 142.074 163.16 141.097C162.244 140.119 161.01 139.387 159.457 138.898C157.905 138.41 155.958 138.165 153.616 138.165H142.393V164.925H153.731ZM153.12 159.738H148.577V143.352H153.12C154.24 143.352 155.182 143.446 155.945 143.633C156.709 143.821 157.326 144.16 157.797 144.648C158.267 145.137 158.605 145.807 158.808 146.659C159.012 147.511 159.114 148.613 159.114 149.966V153.086C159.114 154.439 159.012 155.548 158.808 156.412C158.605 157.276 158.267 157.953 157.797 158.442C157.326 158.93 156.709 159.269 155.945 159.456C155.182 159.644 154.24 159.738 153.12 159.738V159.738ZM181.638 165C182.732 165 183.916 164.975 185.188 164.925L186.066 160.264C184.565 160.289 183.21 160.302 182.001 160.302H178.622C177.884 160.302 177.273 160.258 176.789 160.171C176.306 160.083 175.918 159.914 175.625 159.663C175.333 159.413 175.129 159.087 175.014 158.686C174.9 158.285 174.83 157.759 174.804 157.107H183.814C184.45 157.107 184.985 157.045 185.417 156.919C185.85 156.794 186.2 156.569 186.467 156.243C186.735 155.917 186.919 155.491 187.021 154.965C187.123 154.439 187.173 153.762 187.173 152.936V152.146C187.173 149.791 186.486 147.956 185.112 146.64C183.738 145.325 181.447 144.667 178.24 144.667C176.459 144.667 174.964 144.861 173.755 145.249C172.546 145.638 171.566 146.221 170.815 146.997C170.064 147.774 169.53 148.745 169.212 149.91C168.893 151.075 168.734 152.447 168.734 154.026V156.093C168.734 157.596 168.881 158.905 169.173 160.02C169.466 161.135 169.969 162.062 170.681 162.802C171.394 163.54 172.348 164.092 173.544 164.455C174.741 164.818 176.242 165 178.049 165H181.638V165ZM181.409 152.973H174.804C174.804 152.171 174.849 151.52 174.938 151.019C175.027 150.518 175.193 150.123 175.434 149.835C175.676 149.547 176.007 149.346 176.427 149.234C176.847 149.121 177.4 149.064 178.087 149.064C178.775 149.064 179.328 149.121 179.748 149.234C180.168 149.346 180.505 149.547 180.76 149.835C181.014 150.123 181.186 150.518 181.275 151.019C181.364 151.52 181.409 152.171 181.409 152.973V152.973ZM198.588 165C201.591 165 203.793 164.511 205.193 163.534C206.593 162.557 207.292 161.029 207.292 158.949V158.31C207.292 157.533 207.197 156.813 207.006 156.149C206.822 155.497 206.482 154.897 206.014 154.401C205.543 153.9 204.913 153.487 204.124 153.161C203.335 152.835 202.355 152.622 201.184 152.522L197.672 152.221C196.781 152.146 196.209 152.015 195.954 151.827C195.7 151.639 195.572 151.345 195.572 150.944C195.572 150.443 195.75 150.129 196.107 150.004C196.463 149.879 197.099 149.816 198.016 149.816H200.764C201.401 149.816 202.145 149.822 202.998 149.835C203.85 149.847 204.862 149.866 206.033 149.891L206.911 145.268C205.816 145.243 204.843 145.224 203.99 145.212C203.233 145.2 202.476 145.194 201.719 145.193H198.397C196.819 145.193 195.483 145.325 194.389 145.588C193.294 145.851 192.41 146.233 191.735 146.734C191.061 147.235 190.571 147.843 190.266 148.557C189.96 149.271 189.808 150.092 189.808 151.019V151.733C189.808 153.261 190.253 154.552 191.144 155.604C192.035 156.656 193.536 157.258 195.649 157.408L199.39 157.671C200.281 157.721 200.853 157.853 201.108 158.066C201.362 158.279 201.49 158.598 201.49 159.024C201.49 159.575 201.305 159.939 200.936 160.114C200.567 160.289 199.848 160.377 198.779 160.377C197.557 160.377 196.183 160.371 194.656 160.359C193.129 160.346 191.729 160.327 190.457 160.302L189.617 164.925C190.406 164.95 191.233 164.969 192.098 164.981C192.964 164.994 193.81 165 194.637 165H198.588V165ZM216.493 164.925V156.318L223.632 164.925H231L221.761 154.101L230.236 145.268H223.059L216.493 152.409V137H210.423V164.925H216.493V164.925Z" fill="#334155"/>
<path d="M124.045 233L127.93 222.065H130.225L134.11 233H132.4L131.5 230.45H126.655L125.755 233H124.045ZM127.045 229.175H131.095L129.895 225.8L129.13 223.565H129.04L128.275 225.8L127.045 229.175ZM135.457 233V222.065H137.092V233H135.457ZM143.103 233V222.065H147.528C148.688 222.065 149.613 222.37 150.303 222.98C150.993 223.58 151.338 224.435 151.338 225.545C151.338 226.245 151.183 226.86 150.873 227.39C150.573 227.91 150.138 228.315 149.568 228.605C148.998 228.885 148.313 229.025 147.513 229.025H144.738V233H143.103ZM147.273 227.72C147.983 227.73 148.558 227.56 148.998 227.21C149.448 226.86 149.673 226.32 149.673 225.59C149.673 224.86 149.448 224.325 148.998 223.985C148.558 223.645 147.983 223.475 147.273 223.475H144.738V227.72H147.273ZM157.876 233.135C156.796 233.135 155.851 232.91 155.041 232.46C154.231 232.01 153.601 231.365 153.151 230.525C152.711 229.685 152.491 228.69 152.491 227.54C152.491 226.38 152.716 225.385 153.166 224.555C153.616 223.715 154.241 223.07 155.041 222.62C155.851 222.17 156.796 221.945 157.876 221.945C158.966 221.945 159.911 222.17 160.711 222.62C161.521 223.07 162.151 223.715 162.601 224.555C163.051 225.385 163.276 226.38 163.276 227.54C163.276 228.7 163.051 229.7 162.601 230.54C162.151 231.37 161.521 232.01 160.711 232.46C159.901 232.91 158.956 233.135 157.876 233.135ZM157.876 231.725C159.016 231.725 159.921 231.36 160.591 230.63C161.261 229.89 161.596 228.86 161.596 227.54C161.596 226.21 161.261 225.18 160.591 224.45C159.921 223.72 159.016 223.355 157.876 223.355C156.736 223.355 155.831 223.72 155.161 224.45C154.501 225.18 154.171 226.21 154.171 227.54C154.171 228.87 154.506 229.9 155.176 230.63C155.846 231.36 156.746 231.725 157.876 231.725ZM166.423 233L163.993 222.065H165.778L167.023 228.11L167.623 231.215H167.728L170.008 222.065H172.078L174.388 231.23H174.493L175.063 228.125L176.293 222.065H178.078L175.648 233H173.398L171.088 224.18H170.998L168.673 233H166.423ZM179.534 233V222.065H187.199V223.475H181.169V226.76H186.464V228.08H181.169V231.575H187.214V233H179.534ZM189.29 233V222.065H194.39C195.59 222.065 196.495 222.325 197.105 222.845C197.715 223.365 198.02 224.11 198.02 225.08C198.02 225.74 197.85 226.305 197.51 226.775C197.18 227.235 196.705 227.55 196.085 227.72V227.825C196.675 227.925 197.1 228.155 197.36 228.515C197.63 228.875 197.765 229.365 197.765 229.985V231.815C197.765 232.005 197.77 232.2 197.78 232.4C197.8 232.6 197.855 232.8 197.945 233H196.295C196.225 232.86 196.18 232.685 196.16 232.475C196.14 232.265 196.13 232.035 196.13 231.785V230.27C196.13 229.71 195.995 229.29 195.725 229.01C195.465 228.72 194.95 228.575 194.18 228.575H190.925V233H189.29ZM190.925 227.255H194.165C194.945 227.255 195.5 227.07 195.83 226.7C196.17 226.33 196.34 225.86 196.34 225.29C196.34 224.64 196.14 224.17 195.74 223.88C195.34 223.59 194.815 223.445 194.165 223.445H190.925V227.255ZM200.086 233V222.065H207.751V223.475H201.721V226.76H207.016V228.08H201.721V231.575H207.766V233H200.086ZM209.841 233V222.065H214.266C215.316 222.065 216.211 222.295 216.951 222.755C217.691 223.205 218.251 223.84 218.631 224.66C219.021 225.48 219.216 226.44 219.216 227.54C219.216 228.63 219.021 229.585 218.631 230.405C218.251 231.225 217.691 231.865 216.951 232.325C216.211 232.775 215.316 233 214.266 233H209.841ZM211.476 231.59H214.026C215.086 231.59 215.936 231.26 216.576 230.6C217.216 229.93 217.536 228.9 217.536 227.51C217.536 226.12 217.211 225.1 216.561 224.45C215.921 223.8 215.076 223.475 214.026 223.475H211.476V231.59Z" fill="white"/>
<path d="M116.04 93.3211L124.944 74.5004L116.04 55.6781C116.04 55.6781 139.394 53.7893 140.742 74.4996C139.394 95.21 116.04 93.3203 116.04 93.3203V93.3211ZM167 74.4996C167.005 71.6137 166.669 68.7371 165.997 65.9292C166.279 67.1056 166.555 68.2336 165.985 65.8778C165.416 63.5313 165.685 64.6437 165.968 65.817C162.996 53.6427 154.631 43.634 142.627 37.6159C133.56 33.0688 124.599 32.2463 114.571 32L90 32L98.9019 74.5004L90 117H114.571C124.599 116.754 133.561 115.932 142.628 111.384C154.631 105.367 162.995 95.3581 165.968 83.183C165.685 84.3563 165.416 85.4679 165.984 83.1222C166.555 80.7656 166.28 81.8944 165.997 83.0708C166.668 80.2629 167.005 77.3863 166.999 74.5004" fill="#1963E8"/>
<defs>
<filter id="filter0_d_2125_414" x="3" y="8" width="250" height="238" filterUnits="userSpaceOnUse" color-interpolation-filters="sRGB">
<feFlood flood-opacity="0" result="BackgroundImageFix"/>
<feColorMatrix in="SourceAlpha" type="matrix" values="0 0 0 0 0 0 0 0 0 0 0 0 0 0 0 0 0 0 127 0" result="hardAlpha"/>
<feOffset dy="4"/>
<feGaussianBlur stdDeviation="2"/>
<feComposite in2="hardAlpha" operator="out"/>
<feColorMatrix type="matrix" values="0 0 0 0 0 0 0 0 0 0 0 0 0 0 0 0 0 0 0.25 0"/>
<feBlend mode="normal" in2="BackgroundImageFix" result="effect1_dropShadow_2125_414"/>
<feBlend mode="normal" in="SourceGraphic" in2="effect1_dropShadow_2125_414" result="shape"/>
</filter>
</defs>
</svg>
